<svg xmlns="http://www.w3.org/2000/svg" viewBox="0 0 8 8">
<path d="M2.78,4.83a1.18,1.18,0,0,0,0-1.66L0.67,1.06a0.28,0.28,0,0,1,0-.39h0a0.28,0.28,0,0,1,.39,0L3.17,2.78a1.18,1.18,0,0,0,1.66,0L6.94,0.67a0.28,0.28,0,0,1,.39,0h0a0.28,0.28,0,0,1,0,.39L5.22,3.17a1.18,1.18,0,0,0,0,1.66L7.33,6.94a0.28,0.28,0,0,1,0,.39h0a0.28,0.28,0,0,1-.39,0L4.83,5.22a1.18,1.18,0,0,0-1.66,0L1.06,7.33a0.28,0.28,0,0,1-.39,0h0a0.28,0.28,0,0,1,0-.39Z" transform="translate(0 0)"/><path class="cls-1" d="M7.13,8a0.87,0.87,0,0,1-.61-0.25L4.42,5.64a0.6,0.6,0,0,0-.83,0L1.48,7.75A0.87,0.87,0,0,1,.25,6.52L2.36,4.42a0.59,0.59,0,0,0,0-.83L0.25,1.48A0.87,0.87,0,0,1,1.48.25L3.58,2.36a0.6,0.6,0,0,0,.83,0L6.52,0.25a0.88,0.88,0,0,1,1.23,0,0.87,0.87,0,0,1,0,1.22L5.64,3.58a0.59,0.59,0,0,0,0,.83L7.75,6.52a0.87,0.87,0,0,1,0,1.22A0.86,0.86,0,0,1,7.13,8ZM4,4.29l0.32,0a1.79,1.79,0,0,1,0-.64,1.79,1.79,0,0,1-.64,0,1.79,1.79,0,0,1,0,.64Z"/>
</svg>