<svg width="38" height="29" viewBox="0 0 38 29" fill="none" xmlns="http://www.w3.org/2000/svg">
<path d="M37.9444 13.3855C37.3829 7.75661 32.6196 3.34638 26.8454 3.34638H25.7299V0H17.9217V6.69276H3.34638V13.3855H0V24.9119H4.60298C5.09959 26.8342 6.8484 28.2583 8.92368 28.2583C10.9989 28.2583 12.7478 26.8342 13.2444 24.9119H25.8712C26.3678 26.8342 28.1166 28.2583 30.1919 28.2583C32.2671 28.2583 34.0159 26.8342 34.5126 24.9119H38C38 23.6013 38 14.4367 38 13.3855H37.9444ZM26.8454 5.5773C31.3881 5.5773 35.149 8.98964 35.6997 13.3855H25.7299V5.5773H26.8454ZM20.1526 2.23092H23.499V13.3855H20.1526C20.1526 12.8705 20.1526 2.74403 20.1526 2.23092ZM5.5773 8.92368H17.9217V13.3855H5.5773V8.92368ZM8.92368 26.0274C7.69355 26.0274 6.69276 25.0266 6.69276 23.7965C6.69276 22.5663 7.69355 21.5656 8.92368 21.5656C10.1538 21.5656 11.1546 22.5663 11.1546 23.7965C11.1546 25.0266 10.1538 26.0274 8.92368 26.0274ZM13.2444 22.681C12.7478 20.7588 10.999 19.3346 8.92368 19.3346C6.84848 19.3346 5.09959 20.7588 4.60298 22.681H2.23092V15.6164H23.499V22.681H13.2444ZM30.1918 26.0274C28.9617 26.0274 27.9609 25.0266 27.9609 23.7965C27.9609 22.5663 28.9617 21.5656 30.1918 21.5656C31.4219 21.5656 32.4227 22.5663 32.4227 23.7965C32.4227 25.0266 31.4219 26.0274 30.1918 26.0274ZM35.7691 22.681H34.5125C34.0159 20.7588 32.2671 19.3346 30.1918 19.3346C28.1166 19.3346 26.3677 20.7588 25.8711 22.681H25.7299V15.6164H35.7691V22.681Z" fill="#245462"/>
</svg>
