<svg xmlns="http://www.w3.org/2000/svg" viewBox="0 0 25 25">
<path d="M19.24,25H5.76a4.07,4.07,0,0,1-4.07-4.07V13.09A2.39,2.39,0,0,1,0,10.81V9.13A2.39,2.39,0,0,1,2.38,6.74H4.12a3.57,3.57,0,0,1-.75-2.19V4.07A4.07,4.07,0,0,1,7.44,0,5.76,5.76,0,0,1,12.5,3a5.76,5.76,0,0,1,5.06-3,4.08,4.08,0,0,1,4.07,4.07V4.55a3.57,3.57,0,0,1-.75,2.19h1.74A2.39,2.39,0,0,1,25,9.13v1.69a2.39,2.39,0,0,1-1.69,2.28v7.84A4.08,4.08,0,0,1,19.24,25Zm-6-1.4h6a2.68,2.68,0,0,0,2.67-2.67V13.2H13.2V23.6ZM3.08,13.2v7.73A2.68,2.68,0,0,0,5.76,23.6h6V13.2H3.08Zm-0.7-.7V11.8H11.8V8.14H2.38a1,1,0,0,0-1,1v1.69a1,1,0,0,0,1,1v0.7Zm10.81-.7h9.42a1,1,0,0,0,1-1V9.13a1,1,0,0,0-1-1H13.2V11.8Zm0-5.06H18a2.2,2.2,0,0,0,2.19-2.19V4.07a2.68,2.68,0,0,0-2.68-2.68A4.37,4.37,0,0,0,13.2,5.76H11.8A4.37,4.37,0,0,0,7.44,1.39,2.68,2.68,0,0,0,4.77,4.07V4.55A2.2,2.2,0,0,0,7,6.74H11.8v-1H13.2v1Z"/>
</svg>