<svg width="38" height="38" viewBox="0 0 38 38" fill="none" xmlns="http://www.w3.org/2000/svg">
<path d="M19 7.49609C12.6567 7.49609 7.49609 12.6567 7.49609 19C7.49609 25.3433 12.6567 30.5039 19 30.5039C25.3433 30.5039 30.5039 25.3433 30.5039 19C30.5039 12.6567 25.3433 7.49609 19 7.49609ZM19 28.2773C13.8845 28.2773 9.72266 24.1155 9.72266 19C9.72266 13.8845 13.8845 9.72266 19 9.72266C24.1155 9.72266 28.2773 13.8845 28.2773 19C28.2773 24.1155 24.1155 28.2773 19 28.2773Z" fill="#245462"/>
<path d="M23.4531 13.4336H14.5469C13.932 13.4336 13.4336 13.932 13.4336 14.5469V23.4531C13.4336 24.068 13.932 24.5664 14.5469 24.5664H23.4531C24.068 24.5664 24.5664 24.068 24.5664 23.4531V14.5469C24.5664 13.932 24.068 13.4336 23.4531 13.4336ZM22.3398 22.3398H15.6602V15.6602H17.8867V16.7734C17.8867 17.3883 18.3852 17.8867 19 17.8867C19.6148 17.8867 20.1133 17.3883 20.1133 16.7734V15.6602H22.3398V22.3398Z" fill="#245462"/>
<path d="M36.8867 14.918H34.4287C34.0648 13.5397 33.5167 12.2212 32.7921 10.9807L34.5343 9.2386C34.7431 9.02982 34.8604 8.74668 34.8604 8.45136C34.8604 8.15612 34.7431 7.87298 34.5343 7.6642L30.3359 3.46579C29.9012 3.03102 29.1962 3.03102 28.7615 3.46579L27.0193 5.20793C25.7788 4.48326 24.4603 3.93523 23.082 3.57133V1.11328C23.082 0.498453 22.5836 0 21.9688 0H16.0312C15.4164 0 14.918 0.498453 14.918 1.11328V3.57133C13.5397 3.93523 12.2212 4.48326 10.9807 5.20786L9.2386 3.46572C8.8039 3.03095 8.09897 3.03095 7.6642 3.46572L3.46579 7.66412C3.25702 7.8729 3.13968 8.15605 3.13968 8.45129C3.13968 8.74661 3.25702 9.02968 3.46579 9.23853L5.20793 10.9806C4.48326 12.2212 3.93523 13.5397 3.57133 14.918H1.11328C0.498453 14.918 0 15.4164 0 16.0312V21.9688C0 22.5836 0.498453 23.082 1.11328 23.082H3.57126C3.93515 24.4603 4.48326 25.7788 5.20786 27.0193L3.46572 28.7613C3.25694 28.9701 3.1396 29.2532 3.1396 29.5486C3.1396 29.8438 3.25687 30.1269 3.46572 30.3357L7.66412 34.5342C7.8729 34.743 8.15605 34.8603 8.45129 34.8603C8.74653 34.8603 9.02968 34.743 9.23845 34.5342L10.9806 32.7921C12.2211 33.5167 13.5396 34.0647 14.9178 34.4287V36.8867C14.9178 37.5015 15.4163 38 16.0311 38H21.9686C22.5834 38 23.0819 37.5015 23.0819 36.8867V34.4287C24.4601 34.0648 25.7786 33.5167 27.0191 32.7921L28.7612 34.5343C28.97 34.7431 29.2532 34.8604 29.5484 34.8604C29.8437 34.8604 30.1268 34.7431 30.3356 34.5343L34.534 30.3358C34.7428 30.127 34.8601 29.8439 34.8601 29.5486C34.8601 29.2533 34.7428 28.9703 34.534 28.7614L32.7918 27.0193C33.5164 25.7788 34.0645 24.4603 34.4284 23.0821H36.8867C37.5015 23.0821 38 22.5837 38 21.9688V16.0313C38 15.4164 37.5015 14.918 36.8867 14.918ZM35.7734 20.8555H33.5457C33.0162 20.8555 32.56 21.2283 32.4547 21.7473C32.1059 23.4652 31.4321 25.0868 30.4519 26.567C30.1596 27.0084 30.2185 27.5945 30.5929 27.9689L32.1726 29.5486L29.5486 32.1726L27.9689 30.5928C27.5946 30.2185 27.0084 30.1595 26.567 30.4518C25.0868 31.432 23.4653 32.1058 21.7474 32.4546C21.2285 32.5599 20.8555 33.0161 20.8555 33.5456V35.7734H17.1446V33.5457C17.1446 33.0162 16.7717 32.56 16.2528 32.4547C14.5349 32.1059 12.9132 31.4321 11.4331 30.4519C10.9916 30.1595 10.4055 30.2185 10.0313 30.5929L8.45151 32.1726L5.82751 29.5486L7.40725 27.969C7.78161 27.5946 7.84054 27.0085 7.54827 26.567C6.56806 25.0868 5.89423 23.4653 5.54548 21.7474C5.44001 21.2284 4.98379 20.8555 4.45431 20.8555H2.22656V17.1445H4.45431C4.98379 17.1445 5.44001 16.7717 5.54533 16.2527C5.89408 14.5348 6.56791 12.9131 7.54812 11.433C7.84039 10.9916 7.78147 10.4054 7.40711 10.031L5.82736 8.45136L8.45136 5.82736L10.0311 7.40711C10.4054 7.78147 10.9915 7.84039 11.433 7.54812C12.9132 6.56791 14.5347 5.89408 16.2526 5.5454C16.7717 5.44001 17.1445 4.98379 17.1445 4.45439V2.22656H20.8555V4.45439C20.8555 4.98386 21.2283 5.44009 21.7473 5.5454C23.4651 5.89416 25.0868 6.56799 26.567 7.54812C27.0084 7.84039 27.5945 7.78147 27.9688 7.40711L29.5486 5.82736L32.1726 8.45136L30.5928 10.031C30.2185 10.4054 30.1595 10.9915 30.4518 11.433C31.432 12.9132 32.1058 14.5348 32.4546 16.2527C32.5599 16.7716 33.0161 17.1445 33.5456 17.1445H35.7734V20.8555Z" fill="#245462"/>
</svg>
