<svg width="38" height="38" viewBox="0 0 38 38" fill="none" xmlns="http://www.w3.org/2000/svg">
<path d="M22.6671 9.32536L25.2708 11.2516C25.5639 11.4684 25.4158 11.9482 25.0452 11.9505L24.2281 11.9554C24.2273 11.9554 24.2266 11.9554 24.2258 11.9554C24.0156 11.9554 23.844 11.7853 23.8426 11.5751C23.8389 10.9603 23.3377 10.4637 22.7226 10.4688C22.1078 10.4726 21.6124 10.9741 21.6161 11.5889C21.6235 12.7767 22.4279 13.776 23.5179 14.0837V14.1376C23.5179 14.7525 24.0163 15.2509 24.6311 15.2509C25.2458 15.2509 25.7443 14.7525 25.7443 14.1376V14.0814C26.178 13.9612 26.5751 13.7299 26.8999 13.401C27.3898 12.9048 27.6572 12.2475 27.6524 11.5484V11.5415C27.6468 10.7249 27.2515 9.94738 26.595 9.4617L23.9913 7.5355C23.6956 7.3167 23.851 6.84527 24.2193 6.84527H25.0376C25.2489 6.84527 25.4208 7.01693 25.4208 7.22794C25.4208 7.84277 25.9193 8.34122 26.534 8.34122C27.1488 8.34122 27.6472 7.84277 27.6472 7.22794C27.6472 6.03413 26.8408 5.02565 25.7442 4.71675V4.66316C25.7442 4.04833 25.2457 3.54988 24.631 3.54988C24.0162 3.54988 23.5178 4.04833 23.5178 4.66316V4.71526C22.4186 5.02245 21.6096 6.0322 21.6096 7.22794C21.6097 8.05139 22.005 8.83544 22.6671 9.32536Z" fill="#245462"/>
<path d="M24.631 18.8007C29.8158 18.8007 34.0338 14.5838 34.0338 9.40032C34.0338 4.21688 29.8157 0 24.631 0C19.4463 0 15.2283 4.21696 15.2283 9.40039C15.2283 14.5838 19.4463 18.8007 24.631 18.8007ZM24.631 2.22656C28.5881 2.22656 31.8073 5.44476 31.8073 9.40039C31.8073 13.356 28.5881 16.5742 24.631 16.5742C20.6741 16.5742 17.4548 13.356 17.4548 9.40039C17.4548 5.44476 20.6741 2.22656 24.631 2.22656Z" fill="#245462"/>
<path d="M37.2344 21.3146C36.0304 19.7644 33.8567 19.4728 32.292 20.5584L28.0562 23.3921C27.4676 22.2961 26.3103 21.549 24.9814 21.549H21.9598C20.4347 20.1185 18.3985 19.3064 16.2982 19.3064C14.7219 19.3064 13.1885 19.7517 11.8639 20.5942C10.6704 21.3534 9.69409 22.4021 9.02322 23.6402L8.45604 23.987L8.30909 23.5572C8.11018 22.9756 7.47754 22.6651 6.89582 22.8639L0.753548 24.9627C0.172044 25.1614 -0.138784 25.7946 0.0601221 26.3764L3.77648 37.2466C3.97546 37.8286 4.60832 38.1385 5.18975 37.9399L11.332 35.8412C11.8806 35.6538 12.2399 35.055 12.0131 34.3916L21.7596 34.0899C24.4139 34.0863 26.9593 33.2712 29.1214 31.7323L36.4715 26.5042C38.1565 25.3047 38.5044 22.9484 37.2344 21.3146ZM5.52314 35.473L2.52708 26.7097L6.56243 25.3308C6.99713 26.6024 9.10984 32.7819 9.55849 34.0943L5.52314 35.473ZM35.1807 24.6899L27.8307 29.918C26.0427 31.1906 23.9372 31.8633 21.7419 31.8633C21.7305 31.8633 21.7189 31.8634 21.7075 31.8638L11.2595 32.1872L9.194 26.1455L10.4494 25.3778C10.4497 25.3777 10.4499 25.3775 10.4502 25.3772C10.635 25.2641 10.7795 25.0981 10.8677 24.9184C11.8923 22.8301 13.9732 21.5328 16.2982 21.5328C17.9784 21.5328 19.5389 22.2054 20.6923 23.4268C20.9048 23.6518 21.2099 23.7754 21.5017 23.7754H24.9814C25.6769 23.7754 26.2428 24.3409 26.2428 25.0361C26.2428 25.7241 25.6864 26.2969 24.9814 26.2969H18.7003C18.0855 26.2969 17.5871 26.7953 17.5871 27.4102C17.5871 28.025 18.0856 28.5234 18.7003 28.5234H24.9814C25.9138 28.5234 26.7898 28.1604 27.4473 27.5019C27.9073 27.042 28.2225 26.4763 28.3712 25.86L33.5384 22.4031C33.5447 22.399 33.5508 22.3948 33.557 22.3904C34.1663 21.9648 35.0103 22.0807 35.4763 22.6806C35.9677 23.3129 35.8334 24.2254 35.1807 24.6899Z" fill="#245462"/>
</svg>
