<svg width="40" height="40" viewBox="0 0 40 40" fill="none" xmlns="http://www.w3.org/2000/svg">
<path d="M34.9455 8.26874H36.1196C36.5292 8.26874 36.8613 7.93661 36.8613 7.52704C36.8613 7.11747 36.5292 6.78534 36.1196 6.78534H33.3011C32.8916 6.78534 32.5594 7.11747 32.5594 7.52704V10.3455C32.5594 10.7551 32.8916 11.0872 33.3011 11.0872C33.7107 11.0872 34.0428 10.7551 34.0428 10.3455V9.52941C36.2933 12.5423 37.5166 16.1979 37.5166 20C37.5166 29.6587 29.6587 37.5166 20 37.5166C10.3413 37.5166 2.4834 29.6587 2.4834 20C2.4834 10.3413 10.3413 2.4834 20 2.4834C20.7143 2.4834 21.4333 2.52679 22.137 2.61231C22.5431 2.66141 22.9134 2.37222 22.9628 1.96555C23.0123 1.55895 22.7227 1.18913 22.316 1.13974C21.5531 1.04702 20.774 1 20 1C14.9249 1 10.1536 2.97634 6.56498 6.56498C2.97634 10.1536 1 14.9249 1 20C1 25.0751 2.97634 29.8464 6.56498 33.435C10.1536 37.0237 14.9249 39 20 39C25.0751 39 29.8464 37.0237 33.435 33.435C37.0237 29.8464 39 25.0751 39 20C39 15.7173 37.5693 11.606 34.9455 8.26874Z" fill="#245462"/>
<path d="M9.04536 12.2006C8.69921 11.9816 8.24106 12.0846 8.02189 12.4306C6.32866 15.1049 5.5791 18.321 5.91131 21.4867C6.24841 24.6993 7.69435 27.7288 9.9828 30.0173C12.7445 32.7791 16.3723 34.16 20.0001 34.16C23.6279 34.16 27.2555 32.7791 30.0173 30.0173C35.5408 24.4938 35.5408 15.5063 30.0173 9.98289C27.7324 7.69801 24.7078 6.25258 21.5005 5.91288C18.3407 5.578 15.128 6.32171 12.4549 8.00663C12.1083 8.22506 12.0045 8.68306 12.2229 9.02958C12.4413 9.37618 12.8993 9.47994 13.2458 9.26159C18.2848 6.08562 24.75 6.81345 28.9683 11.0318C33.9135 15.9769 33.9135 24.0232 28.9683 28.9684C24.0233 33.9136 15.9769 33.9136 11.0318 28.9684C6.87173 24.8083 6.133 18.1869 9.27529 13.2242C9.49431 12.878 9.39144 12.4198 9.04536 12.2006Z" fill="#245462"/>
<path d="M29.6422 20.7537H30.5568C30.9664 20.7537 31.2985 20.4216 31.2985 20.012C31.2985 19.6024 30.9664 19.2703 30.5568 19.2703H29.6422C29.2326 19.2703 28.9005 19.6024 28.9005 20.012C28.9005 20.4216 29.2325 20.7537 29.6422 20.7537Z" fill="#245462"/>
<path d="M8.70147 19.988C8.70147 20.3976 9.0336 20.7297 9.44317 20.7297H10.3578C10.7674 20.7297 11.0995 20.3976 11.0995 19.988C11.0995 19.5784 10.7674 19.2463 10.3578 19.2463H9.44317C9.0336 19.2463 8.70147 19.5783 8.70147 19.988Z" fill="#245462"/>
<path d="M20.7537 10.3578V9.44315C20.7537 9.03358 20.4216 8.70145 20.012 8.70145C19.6024 8.70145 19.2703 9.03358 19.2703 9.44315V10.3578C19.2703 10.7674 19.6024 11.0995 20.012 11.0995C20.4216 11.0995 20.7537 10.7674 20.7537 10.3578Z" fill="#245462"/>
<path d="M19.2463 29.6422V30.5568C19.2463 30.9664 19.5784 31.2985 19.988 31.2985C20.3975 31.2985 20.7297 30.9664 20.7297 30.5568V29.6422C20.7297 29.2326 20.3975 28.9005 19.988 28.9005C19.5784 28.9005 19.2463 29.2325 19.2463 29.6422Z" fill="#245462"/>
<path d="M16.2823 15.2333C15.9926 14.9437 15.5231 14.9437 15.2333 15.2333C14.9437 15.5229 14.9437 15.9926 15.2333 16.2823L17.747 18.796C17.5544 19.155 17.4448 19.5649 17.4448 20C17.4448 21.4089 18.5911 22.5552 20 22.5552C21.4089 22.5552 22.5552 21.4089 22.5552 20C22.5552 19.5649 22.4455 19.155 22.253 18.796L27.325 13.724C27.6146 13.4344 27.6146 12.9647 27.325 12.675C27.0353 12.3855 26.5658 12.3855 26.276 12.675L21.204 17.747C20.845 17.5544 20.4351 17.4448 20 17.4448C19.5649 17.4448 19.155 17.5545 18.796 17.747L16.2823 15.2333ZM21.0718 20C21.0718 20.591 20.591 21.0718 20 21.0718C19.409 21.0718 18.9282 20.591 18.9282 20C18.9282 19.409 19.409 18.9282 20 18.9282C20.591 18.9282 21.0718 19.409 21.0718 20Z" fill="#245462"/>
<path d="M11.0314 11.0314C11.1701 10.8934 11.2493 10.702 11.2493 10.507C11.2493 10.3119 11.1701 10.1213 11.0314 9.9826C10.8934 9.84471 10.7027 9.76528 10.507 9.76528C10.3119 9.76528 10.1206 9.84464 9.9826 9.9826C9.84472 10.1206 9.76528 10.3119 9.76528 10.507C9.76528 10.7028 9.84464 10.8934 9.9826 11.0314C10.1206 11.1692 10.3119 11.2487 10.507 11.2487C10.7027 11.2487 10.8934 11.1692 11.0314 11.0314Z" fill="#245462"/>
<path d="M25.1378 3.21605C25.3337 3.21605 25.525 3.13736 25.6629 2.99874C25.8009 2.86078 25.8803 2.67009 25.8803 2.47435C25.8803 2.27929 25.8009 2.08793 25.6629 1.94997C25.525 1.81209 25.3337 1.73265 25.1378 1.73265C24.9427 1.73265 24.7514 1.81202 24.6135 1.94997C24.4755 2.08793 24.3961 2.27929 24.3961 2.47435C24.3961 2.67016 24.4754 2.86078 24.6135 2.99874C24.7514 3.13736 24.9427 3.21605 25.1378 3.21605Z" fill="#245462"/>
<path d="M34.9455 8.26874H36.1196C36.5292 8.26874 36.8613 7.93661 36.8613 7.52704C36.8613 7.11747 36.5292 6.78534 36.1196 6.78534H33.3011C32.8916 6.78534 32.5594 7.11747 32.5594 7.52704V10.3455C32.5594 10.7551 32.8916 11.0872 33.3011 11.0872C33.7107 11.0872 34.0428 10.7551 34.0428 10.3455V9.52941C36.2933 12.5423 37.5166 16.1979 37.5166 20C37.5166 29.6587 29.6587 37.5166 20 37.5166C10.3413 37.5166 2.4834 29.6587 2.4834 20C2.4834 10.3413 10.3413 2.4834 20 2.4834C20.7143 2.4834 21.4333 2.52679 22.137 2.61231C22.5431 2.66141 22.9134 2.37222 22.9628 1.96555C23.0123 1.55895 22.7227 1.18913 22.316 1.13974C21.5531 1.04702 20.774 1 20 1C14.9249 1 10.1536 2.97634 6.56498 6.56498C2.97634 10.1536 1 14.9249 1 20C1 25.0751 2.97634 29.8464 6.56498 33.435C10.1536 37.0237 14.9249 39 20 39C25.0751 39 29.8464 37.0237 33.435 33.435C37.0237 29.8464 39 25.0751 39 20C39 15.7173 37.5693 11.606 34.9455 8.26874Z" stroke="#245462"/>
<path d="M9.04536 12.2006C8.69921 11.9816 8.24106 12.0846 8.02189 12.4306C6.32866 15.1049 5.5791 18.321 5.91131 21.4867C6.24841 24.6993 7.69435 27.7288 9.9828 30.0173C12.7445 32.7791 16.3723 34.16 20.0001 34.16C23.6279 34.16 27.2555 32.7791 30.0173 30.0173C35.5408 24.4938 35.5408 15.5063 30.0173 9.98289C27.7324 7.69801 24.7078 6.25258 21.5005 5.91288C18.3407 5.578 15.128 6.32171 12.4549 8.00663C12.1083 8.22506 12.0045 8.68306 12.2229 9.02958C12.4413 9.37618 12.8993 9.47994 13.2458 9.26159C18.2848 6.08562 24.75 6.81345 28.9683 11.0318C33.9135 15.9769 33.9135 24.0232 28.9683 28.9684C24.0233 33.9136 15.9769 33.9136 11.0318 28.9684C6.87173 24.8083 6.133 18.1869 9.27529 13.2242C9.49431 12.878 9.39144 12.4198 9.04536 12.2006Z" stroke="#245462"/>
<path d="M29.6422 20.7537H30.5568C30.9664 20.7537 31.2985 20.4216 31.2985 20.012C31.2985 19.6024 30.9664 19.2703 30.5568 19.2703H29.6422C29.2326 19.2703 28.9005 19.6024 28.9005 20.012C28.9005 20.4216 29.2325 20.7537 29.6422 20.7537Z" stroke="#245462"/>
<path d="M8.70147 19.988C8.70147 20.3976 9.0336 20.7297 9.44317 20.7297H10.3578C10.7674 20.7297 11.0995 20.3976 11.0995 19.988C11.0995 19.5784 10.7674 19.2463 10.3578 19.2463H9.44317C9.0336 19.2463 8.70147 19.5783 8.70147 19.988Z" stroke="#245462"/>
<path d="M20.7537 10.3578V9.44315C20.7537 9.03358 20.4216 8.70145 20.012 8.70145C19.6024 8.70145 19.2703 9.03358 19.2703 9.44315V10.3578C19.2703 10.7674 19.6024 11.0995 20.012 11.0995C20.4216 11.0995 20.7537 10.7674 20.7537 10.3578Z" stroke="#245462"/>
<path d="M19.2463 29.6422V30.5568C19.2463 30.9664 19.5784 31.2985 19.988 31.2985C20.3975 31.2985 20.7297 30.9664 20.7297 30.5568V29.6422C20.7297 29.2326 20.3975 28.9005 19.988 28.9005C19.5784 28.9005 19.2463 29.2325 19.2463 29.6422Z" stroke="#245462"/>
<path d="M16.2823 15.2333C15.9926 14.9437 15.5231 14.9437 15.2333 15.2333C14.9437 15.5229 14.9437 15.9926 15.2333 16.2823L17.747 18.796C17.5544 19.155 17.4448 19.5649 17.4448 20C17.4448 21.4089 18.5911 22.5552 20 22.5552C21.4089 22.5552 22.5552 21.4089 22.5552 20C22.5552 19.5649 22.4455 19.155 22.253 18.796L27.325 13.724C27.6146 13.4344 27.6146 12.9647 27.325 12.675C27.0353 12.3855 26.5658 12.3855 26.276 12.675L21.204 17.747C20.845 17.5544 20.4351 17.4448 20 17.4448C19.5649 17.4448 19.155 17.5545 18.796 17.747L16.2823 15.2333ZM21.0718 20C21.0718 20.591 20.591 21.0718 20 21.0718C19.409 21.0718 18.9282 20.591 18.9282 20C18.9282 19.409 19.409 18.9282 20 18.9282C20.591 18.9282 21.0718 19.409 21.0718 20Z" stroke="#245462"/>
<path d="M11.0314 11.0314C11.1701 10.8934 11.2493 10.702 11.2493 10.507C11.2493 10.3119 11.1701 10.1213 11.0314 9.9826C10.8934 9.84471 10.7027 9.76528 10.507 9.76528C10.3119 9.76528 10.1206 9.84464 9.9826 9.9826C9.84472 10.1206 9.76528 10.3119 9.76528 10.507C9.76528 10.7028 9.84464 10.8934 9.9826 11.0314C10.1206 11.1692 10.3119 11.2487 10.507 11.2487C10.7027 11.2487 10.8934 11.1692 11.0314 11.0314Z" stroke="#245462"/>
<path d="M25.1378 3.21605C25.3337 3.21605 25.525 3.13736 25.6629 2.99874C25.8009 2.86078 25.8803 2.67009 25.8803 2.47435C25.8803 2.27929 25.8009 2.08793 25.6629 1.94997C25.525 1.81209 25.3337 1.73265 25.1378 1.73265C24.9427 1.73265 24.7514 1.81202 24.6135 1.94997C24.4755 2.08793 24.3961 2.27929 24.3961 2.47435C24.3961 2.67016 24.4754 2.86078 24.6135 2.99874C24.7514 3.13736 24.9427 3.21605 25.1378 3.21605Z" stroke="#245462"/>
</svg>
