<svg class='visually-hidden' width='0' height='0' aria-hidden='true' focusable='false' xmlns="http://www.w3.org/2000/svg">
<defs>
  <symbol width="100%" height="100%" viewBox="0 0 3 16" id='etc-icon'>
    <path d="M1.63636 2.27273C1.28491 2.27273 1 1.98782 1 1.63636C1 1.28491 1.28491 1 1.63636 1C1.98782 1 2.27273 1.28491 2.27273 1.63636C2.27273 1.98782 1.98782 2.27273 1.63636 2.27273Z"/>
    <path d="M1.63636 8.63636C1.28491 8.63636 1 8.35145 1 8C1 7.64855 1.28491 7.36364 1.63636 7.36364C1.98782 7.36364 2.27273 7.64855 2.27273 8C2.27273 8.35145 1.98782 8.63636 1.63636 8.63636Z"/>
    <path d="M1.63636 15C1.28491 15 1 14.7151 1 14.3636C1 14.0122 1.28491 13.7273 1.63636 13.7273C1.98782 13.7273 2.27273 14.0122 2.27273 14.3636C2.27273 14.7151 1.98782 15 1.63636 15Z"/>
  </symbol>
  <symbol width="100%" height="100%" viewBox="0 0 8 12" id='arrow-icon'>
    <polygon points="6.34 12 0 5.99 6.34 0 8 1.56 3.31 5.99 8 10.43 6.34 12"/>
  </symbol>
  <symbol width="100%" height="100%" viewBox="0 0 8 8" id='cross-icon'>
    <path d="M2.78,4.83a1.18,1.18,0,0,0,0-1.66L0.67,1.06a0.28,0.28,0,0,1,0-.39h0a0.28,0.28,0,0,1,.39,0L3.17,2.78a1.18,1.18,0,0,0,1.66,0L6.94,0.67a0.28,0.28,0,0,1,.39,0h0a0.28,0.28,0,0,1,0,.39L5.22,3.17a1.18,1.18,0,0,0,0,1.66L7.33,6.94a0.28,0.28,0,0,1,0,.39h0a0.28,0.28,0,0,1-.39,0L4.83,5.22a1.18,1.18,0,0,0-1.66,0L1.06,7.33a0.28,0.28,0,0,1-.39,0h0a0.28,0.28,0,0,1,0-.39Z" transform="translate(0 0)"/><path class="cls-1" d="M7.13,8a0.87,0.87,0,0,1-.61-0.25L4.42,5.64a0.6,0.6,0,0,0-.83,0L1.48,7.75A0.87,0.87,0,0,1,.25,6.52L2.36,4.42a0.59,0.59,0,0,0,0-.83L0.25,1.48A0.87,0.87,0,0,1,1.48.25L3.58,2.36a0.6,0.6,0,0,0,.83,0L6.52,0.25a0.88,0.88,0,0,1,1.23,0,0.87,0.87,0,0,1,0,1.22L5.64,3.58a0.59,0.59,0,0,0,0,.83L7.75,6.52a0.87,0.87,0,0,1,0,1.22A0.86,0.86,0,0,1,7.13,8ZM4,4.29l0.32,0a1.79,1.79,0,0,1,0-.64,1.79,1.79,0,0,1-.64,0,1.79,1.79,0,0,1,0,.64Z"/>
  </symbol>
  <symbol width="100%" height="100%" viewBox="0 0 15 15" id='star-icon'>
    <path d="M7.94838 0.278719C7.86415 0.10805 7.69034 0 7.50001 0C7.30969 0 7.13587 0.10805 7.05165 0.278719L5.00476 4.42621L0.42816 5.09081C0.239806 5.11816 0.0833166 5.25008 0.0244934 5.43109C-0.0343298 5.6121 0.0147161 5.81081 0.151008 5.94366L3.46277 9.17185L2.68076 13.7306C2.64858 13.9182 2.72569 14.1078 2.87966 14.2196C3.03364 14.3315 3.23778 14.3463 3.40624 14.2577L7.50001 12.1054L11.5938 14.2577C11.7623 14.3463 11.9664 14.3315 12.1204 14.2196C12.2743 14.1078 12.3515 13.9182 12.3193 13.7306L11.5373 9.17185L14.849 5.94366C14.9853 5.81081 15.0344 5.6121 14.9755 5.43109C14.9167 5.25008 14.7602 5.11816 14.5719 5.09081L9.99527 4.42621L7.94838 0.278719Z"/>
  </symbol>
  <symbol width="100%" height="100%" viewBox="0 0 9 14" id='arrow2-icon'>
    <polygon points="8.14 14 0 7 8.14 0 9 0.74 1.72 7 9 13.26 8.14 14"/>
  </symbol>
  <symbol width="100%" height="100%" viewBox="0 0 19 12" id='menu-icon'>
    <path d="M0,1.33H19V0H0V1.33ZM11.4,6.67H19V5.33H11.4V6.67ZM7.6,12H19V10.67H7.6V12Z"/>
  </symbol>
</defs>
</svg>