<svg class='visually-hidden' width='0' height='0' aria-hidden='true' focusable='false' xmlns="http://www.w3.org/2000/svg">
<defs>
  <symbol width="100%" height="100%" viewBox="0 0 16 16" id='contact-icon'>
    <path d="M8,16a8,8,0,1,1,8-8V9.07a2.67,2.67,0,0,1-5,1.21A3.73,3.73,0,1,1,11.73,8V9.07a1.6,1.6,0,0,0,3.2,0V8a6.93,6.93,0,1,0-3,5.69l0.61,0.87A8,8,0,0,1,8,16ZM8,5.33A2.67,2.67,0,1,0,10.67,8,2.67,2.67,0,0,0,8,5.33Z"/>
  </symbol>
  <symbol width="100%" height="100%" viewBox="0 0 17 17" id='inst-icon'>
    <path d="M11.91,17H5.09A5.09,5.09,0,0,1,0,11.91H0V5.09A5.09,5.09,0,0,1,5.09,0h6.83A5.09,5.09,0,0,1,17,5.09v6.83A5.09,5.09,0,0,1,11.91,17ZM5.09,1.06a4,4,0,0,0-4,4h0v6.83a4,4,0,0,0,4,4h6.83a4,4,0,0,0,4-4h0V5.09a4,4,0,0,0-4-4H5.09ZM8.5,12.44A3.94,3.94,0,1,1,12.44,8.5,3.94,3.94,0,0,1,8.5,12.44Zm0-6.83A2.88,2.88,0,1,0,11.38,8.5,2.88,2.88,0,0,0,8.5,5.61h0Zm5.12-1.14H12.48V3.41h1.14V4.47Z"/>
  </symbol>
  <symbol width="100%" height="100%" viewBox="0 0 18 16" id='mail-icon'>
    <path d="M16.27,16H1.73A1.76,1.76,0,0,1,0,14.22H0V1.78A1.76,1.76,0,0,1,1.73,0H16.27A1.76,1.76,0,0,1,18,1.78h0V14.22A1.76,1.76,0,0,1,16.27,16h0ZM1,5.18v9a0.71,0.71,0,0,0,.7.71H16.27a0.71,0.71,0,0,0,.7-0.71h0v-9L9,9.86ZM1,4L9,8.63,17,4V1.82a0.71,0.71,0,0,0-.7-0.71H1.73a0.71,0.71,0,0,0-.7.71H1V4Z"/>
  </symbol>
  <symbol width="100%" height="100%" viewBox="0 0 19 19" id='phone-icon'>
    <path d="M15.91,19H13.34A13.37,13.37,0,0,1,0,5.66V3.09A3.09,3.09,0,0,1,3.09,0H5.93A1.81,1.81,0,0,1,7.69,1.37l0.75,3A1.82,1.82,0,0,1,7.26,6.49L5.8,7a1.06,1.06,0,0,0-.68,1.17,7.21,7.21,0,0,0,5.67,5.67A1.06,1.06,0,0,0,12,13.19l0.38-1.14a1.81,1.81,0,0,1,2.28-1.16L14.9,11,18,12.55a1.79,1.79,0,0,1,1,1.61v1.77A3.09,3.09,0,0,1,15.91,19ZM3.09,1.06a2,2,0,0,0-2,2h0V5.66A12.31,12.31,0,0,0,13.34,17.94h2.57a2,2,0,0,0,2-2V14.13a0.75,0.75,0,0,0-.41-0.68l-3.09-1.55a0.75,0.75,0,0,0-1,.32l0,0.11L13,13.48a2.11,2.11,0,0,1-2.38,1.38A8.26,8.26,0,0,1,4.12,8.38,2.11,2.11,0,0,1,5.5,6l1.43-.47a0.76,0.76,0,0,0,.5-0.9L6.67,1.58a0.75,0.75,0,0,0-.74-0.53H3.09Z"/>
  </symbol>
</defs>
</svg>