<svg xmlns="http://www.w3.org/2000/svg" viewBox="0 0 19 19">
<path d="M15.91,19H13.34A13.37,13.37,0,0,1,0,5.66V3.09A3.09,3.09,0,0,1,3.09,0H5.93A1.81,1.81,0,0,1,7.69,1.37l0.75,3A1.82,1.82,0,0,1,7.26,6.49L5.8,7a1.06,1.06,0,0,0-.68,1.17,7.21,7.21,0,0,0,5.67,5.67A1.06,1.06,0,0,0,12,13.19l0.38-1.14a1.81,1.81,0,0,1,2.28-1.16L14.9,11,18,12.55a1.79,1.79,0,0,1,1,1.61v1.77A3.09,3.09,0,0,1,15.91,19ZM3.09,1.06a2,2,0,0,0-2,2h0V5.66A12.31,12.31,0,0,0,13.34,17.94h2.57a2,2,0,0,0,2-2V14.13a0.75,0.75,0,0,0-.41-0.68l-3.09-1.55a0.75,0.75,0,0,0-1,.32l0,0.11L13,13.48a2.11,2.11,0,0,1-2.38,1.38A8.26,8.26,0,0,1,4.12,8.38,2.11,2.11,0,0,1,5.5,6l1.43-.47a0.76,0.76,0,0,0,.5-0.9L6.67,1.58a0.75,0.75,0,0,0-.74-0.53H3.09Z"/>
</svg>