<svg xmlns="http://www.w3.org/2000/svg" viewBox="0 0 18 18">
<path d="M9,18a1.69,1.69,0,0,1-1.2-.5L6.43,16.13a0.7,0.7,0,0,0-.49-0.2H3.77a1.7,1.7,0,0,1-1.7-1.7V12.06a0.7,0.7,0,0,0-.21-0.5L0.5,10.19a1.7,1.7,0,0,1,0-2.4L1.87,6.42a0.7,0.7,0,0,0,.21-0.49V3.75a1.7,1.7,0,0,1,1.7-1.7H5.93a0.7,0.7,0,0,0,.49-0.21L7.8,0.48a1.74,1.74,0,0,1,2.4,0l1.37,1.37a0.7,0.7,0,0,0,.5.21h2.16a1.7,1.7,0,0,1,1.7,1.7V5.92a0.71,0.71,0,0,0,.2.5L17.5,7.79a1.7,1.7,0,0,1,0,2.4l-1.37,1.37a0.7,0.7,0,0,0-.2.5v2.16a1.7,1.7,0,0,1-1.7,1.7H12.07a0.7,0.7,0,0,0-.5.21L10.2,17.5A1.69,1.69,0,0,1,9,18ZM3.77,3.05a0.7,0.7,0,0,0-.7.7h0V5.92a1.69,1.69,0,0,1-.5,1.2L1.21,8.49a0.7,0.7,0,0,0,0,1h0l1.37,1.37a1.69,1.69,0,0,1,.5,1.2v2.16a0.7,0.7,0,0,0,.7.7H5.93a1.69,1.69,0,0,1,1.2.5L8.5,16.79a0.72,0.72,0,0,0,1,0l1.37-1.37a1.69,1.69,0,0,1,1.2-.5h2.16a0.7,0.7,0,0,0,.7-0.7V12.06a1.69,1.69,0,0,1,.5-1.2l1.36-1.37a0.7,0.7,0,0,0,0-1h0L15.42,7.12a1.69,1.69,0,0,1-.5-1.2V3.75a0.7,0.7,0,0,0-.7-0.7H12.07a1.69,1.69,0,0,1-1.2-.5L9.5,1.19a0.72,0.72,0,0,0-1,0L7.13,2.56a1.69,1.69,0,0,1-1.2.5H3.77Zm2.54,9.33L5.6,11.67,11.67,5.6l0.71,0.71ZM12,11.92H10.82v-1H12v1ZM7.18,7.06H6v-1H7.18v1Z"/>
</svg>